<svg width="31" height="49" viewBox="0 0 31 49" fill="none" xmlns="http://www.w3.org/2000/svg">
<!-- <rect y="2.04858" width="30.3497" height="46.9523" fill="#E9ECF8"/> -->
<path fill-rule="evenodd" clip-rule="evenodd" d="M22.9051 23.7291C22.8625 23.9968 22.7589 24.2516 22.602 24.4743C22.4451 24.6971 22.2389 24.8821 21.9989 25.0154C21.5157 25.3221 21.0928 25.4755 20.6649 25.6289C19.7537 25.9381 18.7947 26.2472 17.7804 26.6059C16.7106 26.9646 15.7516 27.3233 14.8958 27.583C13.8286 27.9417 12.8142 28.2509 11.8502 28.6095C11.1249 28.9145 10.4437 29.3121 9.82401 29.7919C9.2477 30.305 8.74475 30.8925 8.32888 31.5382C7.90099 32.2556 7.63166 33.1807 7.63166 34.2592C7.63166 36.4186 8.16528 38.0611 9.23502 39.0876C10.3022 40.1686 12.2806 40.6806 15.213 40.6806C18.2032 40.6806 20.232 40.1166 21.3042 38.9862C22.3689 37.8558 22.9025 36.2653 22.9025 34.2122V23.7291H22.9051ZM15.2155 0.972168C20.4509 0.972168 24.2945 1.94923 26.7486 3.95284C29.2052 5.90697 30.4335 8.42013 30.4335 11.3983V36.7773C30.4335 37.8038 30.2221 38.9343 29.8496 40.1661C29.472 41.4029 28.727 42.5309 27.5515 43.5549C26.4314 44.5864 24.8835 45.4596 22.9076 46.1274C20.9317 46.7953 18.3694 47.154 15.218 47.154C12.0717 47.154 9.50434 46.7953 7.53098 46.1274C5.55762 45.4596 4.00713 44.5864 2.88704 43.5549C1.84507 42.6321 1.05572 41.4669 0.591504 40.1661C0.213948 38.9367 0 37.8063 0 36.7798V32.7231C0 30.5637 0.58647 28.56 1.76193 26.8112C2.93739 25.0154 4.59108 23.7836 6.72805 23.0118C7.79527 22.6531 9.02359 22.2945 10.4105 21.8319C11.7999 21.3669 13.0785 20.9043 14.3622 20.4962C15.6459 20.0831 16.766 19.67 17.725 19.3088C18.3037 19.0813 18.8915 18.8766 19.4869 18.6954L20.4484 18.2328C20.826 18.0275 21.196 17.7183 21.571 17.3077C21.9436 16.8996 22.2632 16.437 22.5325 15.9225C22.8171 15.3654 22.9637 14.7501 22.9604 14.1267V12.4818C22.9644 11.8789 22.8356 11.2823 22.5829 10.7329C22.3714 10.1145 21.9436 9.55056 21.3571 9.03852C20.7706 8.52402 19.9677 8.11341 19.0087 7.80173C18.0472 7.49748 16.7685 7.34165 15.3237 7.34165C12.3335 7.34165 10.3576 7.91057 9.29039 9.088C8.38426 10.117 7.85065 11.4008 7.74493 12.838C7.74493 13.1471 7.47812 13.3525 7.15594 13.3525L0.644362 13.4563C0.489685 13.457 0.341003 13.3976 0.23069 13.291C0.120376 13.1845 0.057365 13.0394 0.0553749 12.8874V11.4033C0.0553749 9.96117 0.324698 8.62544 0.911168 7.34165C1.50016 6.05538 2.40881 4.97937 3.63461 4.05178C4.86292 3.12913 6.46627 2.35985 8.38678 1.84534C10.2569 1.22695 12.5525 0.972168 15.2205 0.972168H15.2155Z" fill="#0A3871"/>
</svg>
